# xmcd
#
# Track frame offsets:
#	150
#	16453
#	35051
#	52418
#	70259
#	89245
#	110511
#	128809
#	145900
#	164008
#	186881
#	204935
#
# Disc length: 2956 seconds
#
# Revision: 1
# Processed by: cddbd v1.5.2PL0 Copyright (c) Steve Scherf et al.
# Submitted via: EasyCDDAExtractor 16.0.1.1
#
DISCID=bc0b8a0c
DTITLE=Paulette Carlson - It`S About Time
DYEAR=2005
DGENRE=Country
TTITLE0=I Knew A Good Thing When I Had It
TTITLE1=That Old Glass Case
TTITLE2=I Wish You Wouldn`T Stand Quite So Close
TTITLE3=Cowgirl Angel
TTITLE4=Only In Your Dreams
TTITLE5=My Love Is In America
TTITLE6=He`S Funny That Way
TTITLE7=She Rides For The Brand
TTITLE8=Twenty Years Ago
TTITLE9=Thank You Vets
TTITLE10=Rejoice For The Moment
TTITLE11=It`S About Time Now
EXTD=
EXTT0=
EXTT1=
EXTT2=
EXTT3=
EXTT4=
EXTT5=
EXTT6=
EXTT7=
EXTT8=
EXTT9=
EXTT10=
EXTT11=
PLAYORDER=
